<svg xmlns="http://www.w3.org/2000/svg" width="32" height="32" viewBox="0 0 32 32" fill="none"><path d="M14.2596 2.1748C17.4859 2.25001 20.1573 2.76709 22.5935 4.15851C25.6506 5.89777 27.5224 8.53958 28.2749 11.9523C29.2626 16.4368 28.7452 20.7145 26.2149 24.6349C23.9198 28.198 20.6558 30.2945 16.4419 30.8586C13.0086 31.3193 9.75399 30.727 6.78162 28.9219C3.35775 26.8442 1.26016 23.7605 0.385375 19.8871C-0.611686 15.4309 0.31953 11.3788 3.25428 7.84387C4.52412 6.31144 6.07615 5.11745 7.83511 4.17731C9.18021 3.4628 10.5347 2.74829 12.0491 2.47565C12.9239 2.31582 13.8175 2.24061 14.2596 2.1748ZM27.9269 15.5531C27.9551 15.5531 27.9927 15.5437 28.0209 15.5437C27.861 14.3873 27.7858 13.2121 27.5318 12.0746C26.7699 8.6524 24.8604 6.0858 21.6905 4.50636C20.0727 3.68843 18.3419 3.25597 16.5547 3.05854C15.2002 2.90811 13.8457 2.87051 12.4912 3.15255C9.71636 3.71664 7.45887 5.15506 5.65287 7.30799C3.01912 10.4387 1.87156 13.9924 2.6805 18.0821C4.08203 25.1708 10.9392 29.6646 17.9939 28.1134C23.8163 26.8254 28.0491 21.4666 27.9269 15.5531Z" fill="#DB0C15"></path><path d="M24.5312 4.75077C24.7006 3.46277 25.0016 2.3252 25.4625 1.23463C25.5566 1.0184 25.7541 0.952588 25.961 1.0466C26.1962 1.15002 26.2056 1.35685 26.1304 1.58248C25.8764 2.40981 25.6318 3.23714 25.3967 4.06446C25.3402 4.2807 25.3214 4.50633 25.2838 4.72256C25.2368 4.9576 25.0863 5.09862 24.8605 5.03281C24.7194 4.9858 24.6064 4.81658 24.5312 4.75077Z" fill="#DB0C15"></path><path d="M26.9111 5.8041C27.0146 5.67248 27.071 5.54086 27.1745 5.46565C27.9458 4.85455 28.7265 4.26226 29.5073 3.65117C29.7236 3.48194 29.9399 3.43494 30.1187 3.66997C30.2974 3.89561 30.1751 4.08364 29.9776 4.24346C29.1968 4.84515 28.4255 5.45625 27.6354 6.03914C27.5131 6.12375 27.3156 6.14255 27.1557 6.11435C27.071 6.10495 27.0146 5.93572 26.9111 5.8041Z" fill="#DB0C15"></path><path d="M29.498 8.85054C29.291 8.85054 29.0653 8.89754 28.8677 8.83173C28.736 8.79412 28.5479 8.58729 28.5667 8.49327C28.5856 8.35225 28.7737 8.14542 28.896 8.13602C29.7895 8.09841 30.6643 7.9856 31.5203 7.73176C31.6332 7.69415 31.8871 7.83517 31.953 7.96679C32.0659 8.18303 31.9342 8.38986 31.6896 8.44627C31.097 8.58729 30.5044 8.70011 29.9118 8.81292C29.7801 8.84114 29.639 8.83174 29.498 8.85054C29.498 8.84114 29.498 8.84114 29.498 8.85054Z" fill="#DB0C15"></path><path d="M13.215 17.6778C13.864 17.0573 14.4754 16.4368 15.115 15.8633C16.9492 14.2368 18.7929 12.6198 20.6365 11.0028C21.182 10.5326 21.7746 10.4856 22.3202 10.8147C22.8375 11.125 23.1103 11.6891 22.9598 12.2907C22.8846 12.5634 22.7153 12.8642 22.5083 13.0523C19.4889 15.7975 16.4507 18.5145 13.4125 21.2409C13.0551 21.5606 12.9516 21.57 12.613 21.2503C11.4654 20.1598 10.3273 19.0598 9.20788 17.941C8.71876 17.4521 8.6341 16.7752 8.9257 16.1829C9.20788 15.6095 9.80988 15.2522 10.4401 15.2992C10.8822 15.3274 11.2397 15.5342 11.5407 15.8633C12.0862 16.465 12.6412 17.0667 13.215 17.6778Z" fill="#DB0C15"></path></svg>